{
    "asset" : {
        "generator" : "Khronos glTF Blender I/O v1.8.19",
        "version" : "2.0"
    },
    "scene" : 0,
    "scenes" : [
        {
            "name" : "Scene",
            "nodes" : [
                0
            ]
        }
    ],
    "nodes" : [
        {
            "mesh" : 0,
            "name" : "Landscape"
        }
    ],
    "materials" : [
        {
            "doubleSided" : true,
            "name" : "Snow",
            "pbrMetallicRoughness" : {
                "baseColorTexture" : {
                    "index" : 0
                },
                "metallicFactor" : 0,
                "roughnessFactor" : 0.5
            }
        },
        {
            "doubleSided" : true,
            "name" : "Ice",
            "pbrMetallicRoughness" : {
                "baseColorTexture" : {
                    "index" : 1
                },
                "metallicFactor" : 0,
                "roughnessFactor" : 0.5
            }
        }
    ],
    "meshes" : [
        {
            "name" : "Landscape",
            "primitives" : [
                {
                    "attributes" : {
                        "POSITION" : 0,
                        "NORMAL" : 1,
                        "TEXCOORD_0" : 2
                    },
                    "indices" : 3,
                    "material" : 0
                },
                {
                    "attributes" : {
                        "POSITION" : 4,
                        "NORMAL" : 5,
                        "TEXCOORD_0" : 6
                    },
                    "indices" : 7,
                    "material" : 1
                }
            ]
        }
    ],
    "textures" : [
        {
            "sampler" : 0,
            "source" : 0
        },
        {
            "sampler" : 0,
            "source" : 1
        }
    ],
    "images" : [
        {
            "bufferView" : 4,
            "mimeType" : "image/jpeg",
            "name" : "Snow02 diffuse 1k"
        },
        {
            "bufferView" : 9,
            "mimeType" : "image/jpeg",
            "name" : "snow10 diffuse 1k"
        }
    ],
    "accessors" : [
        {
            "bufferView" : 0,
            "componentType" : 5126,
            "count" : 1778,
            "max" : [
                1.000000238418579,
                0.5531743764877319,
                1
            ],
            "min" : [
                -1,
                -0.1351676881313324,
                -1
            ],
            "type" : "VEC3"
        },
        {
            "bufferView" : 1,
            "componentType" : 5126,
            "count" : 1778,
            "type" : "VEC3"
        },
        {
            "bufferView" : 2,
            "componentType" : 5126,
            "count" : 1778,
            "type" : "VEC2"
        },
        {
            "bufferView" : 3,
            "componentType" : 5123,
            "count" : 4857,
            "type" : "SCALAR"
        },
        {
            "bufferView" : 5,
            "componentType" : 5126,
            "count" : 12,
            "max" : [
                -0.24024800956249237,
                -0.1068205013871193,
                0.20738686621189117
            ],
            "min" : [
                -0.3546285033226013,
                -0.1068205013871193,
                0.11700885742902756
            ],
            "type" : "VEC3"
        },
        {
            "bufferView" : 6,
            "componentType" : 5126,
            "count" : 12,
            "type" : "VEC3"
        },
        {
            "bufferView" : 7,
            "componentType" : 5126,
            "count" : 12,
            "type" : "VEC2"
        },
        {
            "bufferView" : 8,
            "componentType" : 5123,
            "count" : 30,
            "type" : "SCALAR"
        }
    ],
    "bufferViews" : [
        {
            "buffer" : 0,
            "byteLength" : 21336,
            "byteOffset" : 0
        },
        {
            "buffer" : 0,
            "byteLength" : 21336,
            "byteOffset" : 21336
        },
        {
            "buffer" : 0,
            "byteLength" : 14224,
            "byteOffset" : 42672
        },
        {
            "buffer" : 0,
            "byteLength" : 9714,
            "byteOffset" : 56896
        },
        {
            "buffer" : 0,
            "byteLength" : 1843800,
            "byteOffset" : 66612
        },
        {
            "buffer" : 0,
            "byteLength" : 144,
            "byteOffset" : 1910412
        },
        {
            "buffer" : 0,
            "byteLength" : 144,
            "byteOffset" : 1910556
        },
        {
            "buffer" : 0,
            "byteLength" : 96,
            "byteOffset" : 1910700
        },
        {
            "buffer" : 0,
            "byteLength" : 60,
            "byteOffset" : 1910796
        },
        {
            "buffer" : 0,
            "byteLength" : 25808,
            "byteOffset" : 1910856
        }
    ],
    "samplers" : [
        {
            "magFilter" : 9728,
            "minFilter" : 9984
        }
    ],
    "buffers" : [
        {
            "byteLength" : 1936664,
            "uri" : "data:application/octet-stream;base64,"
        }
    ]
}
