{
    "asset" : {
        "generator" : "Khronos glTF Blender I/O v1.8.19",
        "version" : "2.0"
    },
    "scene" : 0,
    "scenes" : [
        {
            "name" : "Scene",
            "nodes" : [
                1
            ]
        }
    ],
    "nodes" : [
        {
            "name" : "Connection",
            "translation" : [
                0,
                1.086212396621704,
                0
            ]
        },
        {
            "children" : [
                0
            ],
            "mesh" : 0,
            "name" : "Stairs"
        }
    ],
    "materials" : [
        {
            "doubleSided" : true,
            "name" : "Material.002",
            "pbrMetallicRoughness" : {
                "baseColorTexture" : {
                    "index" : 0
                },
                "metallicFactor" : 0,
                "roughnessFactor" : 0.5
            }
        }
    ],
    "meshes" : [
        {
            "name" : "Mesh",
            "primitives" : [
                {
                    "attributes" : {
                        "POSITION" : 0,
                        "NORMAL" : 1,
                        "TEXCOORD_0" : 2
                    },
                    "indices" : 3,
                    "material" : 0
                }
            ]
        }
    ],
    "textures" : [
        {
            "sampler" : 0,
            "source" : 0
        }
    ],
    "images" : [
        {
            "bufferView" : 4,
            "mimeType" : "image/png",
            "name" : "Image_0"
        }
    ],
    "accessors" : [
        {
            "bufferView" : 0,
            "componentType" : 5126,
            "count" : 2722,
            "max" : [
                0.7461005449295044,
                1.4314852952957153,
                1.253897786140442
            ],
            "min" : [
                -1.253898024559021,
                0,
                -0.7461013793945312
            ],
            "type" : "VEC3"
        },
        {
            "bufferView" : 1,
            "componentType" : 5126,
            "count" : 2722,
            "type" : "VEC3"
        },
        {
            "bufferView" : 2,
            "componentType" : 5126,
            "count" : 2722,
            "type" : "VEC2"
        },
        {
            "bufferView" : 3,
            "componentType" : 5123,
            "count" : 2880,
            "type" : "SCALAR"
        }
    ],
    "bufferViews" : [
        {
            "buffer" : 0,
            "byteLength" : 32664,
            "byteOffset" : 0
        },
        {
            "buffer" : 0,
            "byteLength" : 32664,
            "byteOffset" : 32664
        },
        {
            "buffer" : 0,
            "byteLength" : 21776,
            "byteOffset" : 65328
        },
        {
            "buffer" : 0,
            "byteLength" : 5760,
            "byteOffset" : 87104
        },
        {
            "buffer" : 0,
            "byteLength" : 1126,
            "byteOffset" : 92864
        }
    ],
    "samplers" : [
        {
            "magFilter" : 9728,
            "minFilter" : 9984
        }
    ],
    "buffers" : [
        {
            "byteLength" : 93992,
            "uri" : "data:application/octet-stream;base64,"
        }
    ]
}
