{
    "asset" : {
        "generator" : "Khronos glTF Blender I/O v1.8.19",
        "version" : "2.0"
    },
    "scene" : 0,
    "scenes" : [
        {
            "name" : "Scene",
            "nodes" : [
                0,
                1,
                2,
                3,
                4,
                5,
                6,
                7,
                8,
                9
            ]
        }
    ],
    "nodes" : [
        {
            "mesh" : 0,
            "name" : "Torso"
        },
        {
            "mesh" : 1,
            "name" : "LLegTop",
            "translation" : [
                0.20374028384685516,
                -0.9097888469696045,
                0.01114966906607151
            ]
        },
        {
            "mesh" : 2,
            "name" : "LLegBot",
            "translation" : [
                0.24409490823745728,
                -1.7072465419769287,
                -0.05888029932975769
            ]
        },
        {
            "mesh" : 3,
            "name" : "LHandTop",
            "translation" : [
                0.43278077244758606,
                0.24273106455802917,
                -0.08699199557304382
            ]
        },
        {
            "mesh" : 4,
            "name" : "LHandBot",
            "translation" : [
                0.4455992877483368,
                -0.22660118341445923,
                -0.0512908399105072
            ]
        },
        {
            "mesh" : 5,
            "name" : "Head",
            "translation" : [
                0.009806717745959759,
                0.8614794015884399,
                0.011821771040558815
            ]
        },
        {
            "mesh" : 6,
            "name" : "RHandTop",
            "translation" : [
                -0.42870771884918213,
                0.24273106455802917,
                -0.08699199557304382
            ]
        },
        {
            "mesh" : 7,
            "name" : "RHandBot",
            "translation" : [
                -0.46764111518859863,
                -0.2303318977355957,
                -0.0512908399105072
            ]
        },
        {
            "mesh" : 8,
            "name" : "RLegTop",
            "translation" : [
                -0.18474435806274414,
                -0.9141496419906616,
                0.01114966906607151
            ]
        },
        {
            "mesh" : 9,
            "name" : "RLegBot",
            "translation" : [
                -0.22509896755218506,
                -1.7116073369979858,
                -0.05888029932975769
            ]
        }
    ],
    "materials" : [
        {
            "doubleSided" : true,
            "name" : "Material",
            "pbrMetallicRoughness" : {
                "baseColorFactor" : [
                    0.800000011920929,
                    0.800000011920929,
                    0.800000011920929,
                    1
                ],
                "metallicFactor" : 0,
                "roughnessFactor" : 0.4000000059604645
            }
        }
    ],
    "meshes" : [
        {
            "name" : "Cube",
            "primitives" : [
                {
                    "attributes" : {
                        "POSITION" : 0,
                        "NORMAL" : 1,
                        "TEXCOORD_0" : 2
                    },
                    "indices" : 3,
                    "material" : 0
                }
            ]
        },
        {
            "name" : "Cube.001",
            "primitives" : [
                {
                    "attributes" : {
                        "POSITION" : 4,
                        "NORMAL" : 5,
                        "TEXCOORD_0" : 6
                    },
                    "indices" : 7
                }
            ]
        },
        {
            "name" : "Cube.002",
            "primitives" : [
                {
                    "attributes" : {
                        "POSITION" : 8,
                        "NORMAL" : 9,
                        "TEXCOORD_0" : 10
                    },
                    "indices" : 11
                }
            ]
        },
        {
            "name" : "Cube.007",
            "primitives" : [
                {
                    "attributes" : {
                        "POSITION" : 12,
                        "NORMAL" : 13,
                        "TEXCOORD_0" : 14
                    },
                    "indices" : 15
                }
            ]
        },
        {
            "name" : "Cube.008",
            "primitives" : [
                {
                    "attributes" : {
                        "POSITION" : 16,
                        "NORMAL" : 17,
                        "TEXCOORD_0" : 18
                    },
                    "indices" : 19
                }
            ]
        },
        {
            "name" : "Cube.009",
            "primitives" : [
                {
                    "attributes" : {
                        "POSITION" : 20,
                        "NORMAL" : 21,
                        "TEXCOORD_0" : 22
                    },
                    "indices" : 23
                }
            ]
        },
        {
            "name" : "Cube.010",
            "primitives" : [
                {
                    "attributes" : {
                        "POSITION" : 24,
                        "NORMAL" : 25,
                        "TEXCOORD_0" : 26
                    },
                    "indices" : 15
                }
            ]
        },
        {
            "name" : "Cube.011",
            "primitives" : [
                {
                    "attributes" : {
                        "POSITION" : 27,
                        "NORMAL" : 28,
                        "TEXCOORD_0" : 29
                    },
                    "indices" : 19
                }
            ]
        },
        {
            "name" : "Cube.012",
            "primitives" : [
                {
                    "attributes" : {
                        "POSITION" : 30,
                        "NORMAL" : 31,
                        "TEXCOORD_0" : 32
                    },
                    "indices" : 7
                }
            ]
        },
        {
            "name" : "Cube.013",
            "primitives" : [
                {
                    "attributes" : {
                        "POSITION" : 33,
                        "NORMAL" : 34,
                        "TEXCOORD_0" : 35
                    },
                    "indices" : 11
                }
            ]
        }
    ],
    "accessors" : [
        {
            "bufferView" : 0,
            "componentType" : 5126,
            "count" : 152,
            "max" : [
                0.3753407597541809,
                0.5882182121276855,
                0.23651123046875
            ],
            "min" : [
                -0.3753294348716736,
                -0.5696297287940979,
                -0.25752007961273193
            ],
            "type" : "VEC3"
        },
        {
            "bufferView" : 1,
            "componentType" : 5126,
            "count" : 152,
            "type" : "VEC3"
        },
        {
            "bufferView" : 2,
            "componentType" : 5126,
            "count" : 152,
            "type" : "VEC2"
        },
        {
            "bufferView" : 3,
            "componentType" : 5123,
            "count" : 228,
            "type" : "SCALAR"
        },
        {
            "bufferView" : 4,
            "componentType" : 5126,
            "count" : 40,
            "max" : [
                0.14624710381031036,
                0.3619286119937897,
                0.19785940647125244
            ],
            "min" : [
                -0.18672770261764526,
                -0.4463311433792114,
                -0.19112277030944824
            ],
            "type" : "VEC3"
        },
        {
            "bufferView" : 5,
            "componentType" : 5126,
            "count" : 40,
            "type" : "VEC3"
        },
        {
            "bufferView" : 6,
            "componentType" : 5126,
            "count" : 40,
            "type" : "VEC2"
        },
        {
            "bufferView" : 7,
            "componentType" : 5123,
            "count" : 60,
            "type" : "SCALAR"
        },
        {
            "bufferView" : 8,
            "componentType" : 5126,
            "count" : 56,
            "max" : [
                0.11986513435840607,
                0.3242093324661255,
                0.17094624042510986
            ],
            "min" : [
                -0.1301036924123764,
                -0.39128637313842773,
                -0.15977966785430908
            ],
            "type" : "VEC3"
        },
        {
            "bufferView" : 9,
            "componentType" : 5126,
            "count" : 56,
            "type" : "VEC3"
        },
        {
            "bufferView" : 10,
            "componentType" : 5126,
            "count" : 56,
            "type" : "VEC2"
        },
        {
            "bufferView" : 11,
            "componentType" : 5123,
            "count" : 84,
            "type" : "SCALAR"
        },
        {
            "bufferView" : 12,
            "componentType" : 5126,
            "count" : 40,
            "max" : [
                0.08748698234558105,
                0.24238675832748413,
                0.13470113277435303
            ],
            "min" : [
                -0.0657164454460144,
                -0.22354233264923096,
                -0.12892186641693115
            ],
            "type" : "VEC3"
        },
        {
            "bufferView" : 13,
            "componentType" : 5126,
            "count" : 40,
            "type" : "VEC3"
        },
        {
            "bufferView" : 14,
            "componentType" : 5126,
            "count" : 40,
            "type" : "VEC2"
        },
        {
            "bufferView" : 15,
            "componentType" : 5123,
            "count" : 60,
            "type" : "SCALAR"
        },
        {
            "bufferView" : 16,
            "componentType" : 5126,
            "count" : 40,
            "max" : [
                0.08017241954803467,
                0.22911104559898376,
                0.1139991283416748
            ],
            "min" : [
                -0.08493337035179138,
                -0.2904999554157257,
                -0.13390696048736572
            ],
            "type" : "VEC3"
        },
        {
            "bufferView" : 17,
            "componentType" : 5126,
            "count" : 40,
            "type" : "VEC3"
        },
        {
            "bufferView" : 18,
            "componentType" : 5126,
            "count" : 40,
            "type" : "VEC2"
        },
        {
            "bufferView" : 19,
            "componentType" : 5123,
            "count" : 60,
            "type" : "SCALAR"
        },
        {
            "bufferView" : 20,
            "componentType" : 5126,
            "count" : 182,
            "max" : [
                0.16271525621414185,
                0.21896123886108398,
                0.259463906288147
            ],
            "min" : [
                -0.16333279013633728,
                -0.2539079189300537,
                -0.19746077060699463
            ],
            "type" : "VEC3"
        },
        {
            "bufferView" : 21,
            "componentType" : 5126,
            "count" : 182,
            "type" : "VEC3"
        },
        {
            "bufferView" : 22,
            "componentType" : 5126,
            "count" : 182,
            "type" : "VEC2"
        },
        {
            "bufferView" : 23,
            "componentType" : 5123,
            "count" : 258,
            "type" : "SCALAR"
        },
        {
            "bufferView" : 24,
            "componentType" : 5126,
            "count" : 40,
            "max" : [
                0.0657164454460144,
                0.24238675832748413,
                0.13470113277435303
            ],
            "min" : [
                -0.08748698234558105,
                -0.22354233264923096,
                -0.12892186641693115
            ],
            "type" : "VEC3"
        },
        {
            "bufferView" : 25,
            "componentType" : 5126,
            "count" : 40,
            "type" : "VEC3"
        },
        {
            "bufferView" : 26,
            "componentType" : 5126,
            "count" : 40,
            "type" : "VEC2"
        },
        {
            "bufferView" : 27,
            "componentType" : 5126,
            "count" : 40,
            "max" : [
                0.08493337035179138,
                0.22911104559898376,
                0.1139991283416748
            ],
            "min" : [
                -0.08017241954803467,
                -0.2904999554157257,
                -0.13390696048736572
            ],
            "type" : "VEC3"
        },
        {
            "bufferView" : 28,
            "componentType" : 5126,
            "count" : 40,
            "type" : "VEC3"
        },
        {
            "bufferView" : 29,
            "componentType" : 5126,
            "count" : 40,
            "type" : "VEC2"
        },
        {
            "bufferView" : 30,
            "componentType" : 5126,
            "count" : 40,
            "max" : [
                0.18672770261764526,
                0.3619286119937897,
                0.19785940647125244
            ],
            "min" : [
                -0.14624710381031036,
                -0.4463311433792114,
                -0.19112277030944824
            ],
            "type" : "VEC3"
        },
        {
            "bufferView" : 31,
            "componentType" : 5126,
            "count" : 40,
            "type" : "VEC3"
        },
        {
            "bufferView" : 32,
            "componentType" : 5126,
            "count" : 40,
            "type" : "VEC2"
        },
        {
            "bufferView" : 33,
            "componentType" : 5126,
            "count" : 56,
            "max" : [
                0.1301036924123764,
                0.3242093324661255,
                0.17094624042510986
            ],
            "min" : [
                -0.11986513435840607,
                -0.3912862539291382,
                -0.15977966785430908
            ],
            "type" : "VEC3"
        },
        {
            "bufferView" : 34,
            "componentType" : 5126,
            "count" : 56,
            "type" : "VEC3"
        },
        {
            "bufferView" : 35,
            "componentType" : 5126,
            "count" : 56,
            "type" : "VEC2"
        }
    ],
    "bufferViews" : [
        {
            "buffer" : 0,
            "byteLength" : 1824,
            "byteOffset" : 0
        },
        {
            "buffer" : 0,
            "byteLength" : 1824,
            "byteOffset" : 1824
        },
        {
            "buffer" : 0,
            "byteLength" : 1216,
            "byteOffset" : 3648
        },
        {
            "buffer" : 0,
            "byteLength" : 456,
            "byteOffset" : 4864
        },
        {
            "buffer" : 0,
            "byteLength" : 480,
            "byteOffset" : 5320
        },
        {
            "buffer" : 0,
            "byteLength" : 480,
            "byteOffset" : 5800
        },
        {
            "buffer" : 0,
            "byteLength" : 320,
            "byteOffset" : 6280
        },
        {
            "buffer" : 0,
            "byteLength" : 120,
            "byteOffset" : 6600
        },
        {
            "buffer" : 0,
            "byteLength" : 672,
            "byteOffset" : 6720
        },
        {
            "buffer" : 0,
            "byteLength" : 672,
            "byteOffset" : 7392
        },
        {
            "buffer" : 0,
            "byteLength" : 448,
            "byteOffset" : 8064
        },
        {
            "buffer" : 0,
            "byteLength" : 168,
            "byteOffset" : 8512
        },
        {
            "buffer" : 0,
            "byteLength" : 480,
            "byteOffset" : 8680
        },
        {
            "buffer" : 0,
            "byteLength" : 480,
            "byteOffset" : 9160
        },
        {
            "buffer" : 0,
            "byteLength" : 320,
            "byteOffset" : 9640
        },
        {
            "buffer" : 0,
            "byteLength" : 120,
            "byteOffset" : 9960
        },
        {
            "buffer" : 0,
            "byteLength" : 480,
            "byteOffset" : 10080
        },
        {
            "buffer" : 0,
            "byteLength" : 480,
            "byteOffset" : 10560
        },
        {
            "buffer" : 0,
            "byteLength" : 320,
            "byteOffset" : 11040
        },
        {
            "buffer" : 0,
            "byteLength" : 120,
            "byteOffset" : 11360
        },
        {
            "buffer" : 0,
            "byteLength" : 2184,
            "byteOffset" : 11480
        },
        {
            "buffer" : 0,
            "byteLength" : 2184,
            "byteOffset" : 13664
        },
        {
            "buffer" : 0,
            "byteLength" : 1456,
            "byteOffset" : 15848
        },
        {
            "buffer" : 0,
            "byteLength" : 516,
            "byteOffset" : 17304
        },
        {
            "buffer" : 0,
            "byteLength" : 480,
            "byteOffset" : 17820
        },
        {
            "buffer" : 0,
            "byteLength" : 480,
            "byteOffset" : 18300
        },
        {
            "buffer" : 0,
            "byteLength" : 320,
            "byteOffset" : 18780
        },
        {
            "buffer" : 0,
            "byteLength" : 480,
            "byteOffset" : 19100
        },
        {
            "buffer" : 0,
            "byteLength" : 480,
            "byteOffset" : 19580
        },
        {
            "buffer" : 0,
            "byteLength" : 320,
            "byteOffset" : 20060
        },
        {
            "buffer" : 0,
            "byteLength" : 480,
            "byteOffset" : 20380
        },
        {
            "buffer" : 0,
            "byteLength" : 480,
            "byteOffset" : 20860
        },
        {
            "buffer" : 0,
            "byteLength" : 320,
            "byteOffset" : 21340
        },
        {
            "buffer" : 0,
            "byteLength" : 672,
            "byteOffset" : 21660
        },
        {
            "buffer" : 0,
            "byteLength" : 672,
            "byteOffset" : 22332
        },
        {
            "buffer" : 0,
            "byteLength" : 448,
            "byteOffset" : 23004
        }
    ],
    "buffers" : [
        {
            "byteLength" : 23452,
            "uri" : "data:application/octet-stream;base64,"
        }
    ]
}
