{
    "asset" : {
        "generator" : "Khronos glTF Blender I/O v1.8.19",
        "version" : "2.0"
    },
    "scene" : 0,
    "scenes" : [
        {
            "name" : "Scene",
            "nodes" : [
                0,
                1,
                2,
                3,
                4
            ]
        }
    ],
    "nodes" : [
        {
            "mesh" : 0,
            "name" : "Stairs"
        },
        {
            "mesh" : 1,
            "name" : "Wall A"
        },
        {
            "mesh" : 2,
            "name" : "Wall B"
        },
        {
            "mesh" : 3,
            "name" : "Rod"
        },
        {
            "mesh" : 4,
            "name" : "Guillotine"
        }
    ],
    "materials" : [
        {
            "doubleSided" : true,
            "name" : "Pallete",
            "pbrMetallicRoughness" : {
                "baseColorTexture" : {
                    "index" : 0
                },
                "metallicFactor" : 0,
                "roughnessFactor" : 0.5
            }
        }
    ],
    "meshes" : [
        {
            "name" : "Stairs",
            "primitives" : [
                {
                    "attributes" : {
                        "POSITION" : 0,
                        "NORMAL" : 1,
                        "TEXCOORD_0" : 2
                    },
                    "indices" : 3,
                    "material" : 0
                }
            ]
        },
        {
            "name" : "Wall",
            "primitives" : [
                {
                    "attributes" : {
                        "POSITION" : 4,
                        "NORMAL" : 5,
                        "TEXCOORD_0" : 6
                    },
                    "indices" : 7,
                    "material" : 0
                }
            ]
        },
        {
            "name" : "Wall.001",
            "primitives" : [
                {
                    "attributes" : {
                        "POSITION" : 8,
                        "NORMAL" : 9,
                        "TEXCOORD_0" : 10
                    },
                    "indices" : 11,
                    "material" : 0
                }
            ]
        },
        {
            "name" : "Cylinder",
            "primitives" : [
                {
                    "attributes" : {
                        "POSITION" : 12,
                        "NORMAL" : 13,
                        "TEXCOORD_0" : 14
                    },
                    "indices" : 15,
                    "material" : 0
                }
            ]
        },
        {
            "name" : "Cube.001",
            "primitives" : [
                {
                    "attributes" : {
                        "POSITION" : 16,
                        "NORMAL" : 17,
                        "TEXCOORD_0" : 18
                    },
                    "indices" : 19,
                    "material" : 0
                }
            ]
        }
    ],
    "textures" : [
        {
            "sampler" : 0,
            "source" : 0
        }
    ],
    "images" : [
        {
            "bufferView" : 4,
            "mimeType" : "image/png",
            "name" : "ImphenziaPalette01"
        }
    ],
    "accessors" : [
        {
            "bufferView" : 0,
            "componentType" : 5126,
            "count" : 1556,
            "max" : [
                4.9859490394592285,
                8.942221641540527,
                4.985950469970703
            ],
            "min" : [
                -4.9859514236450195,
                0.01870971918106079,
                -4.985953330993652
            ],
            "type" : "VEC3"
        },
        {
            "bufferView" : 1,
            "componentType" : 5126,
            "count" : 1556,
            "type" : "VEC3"
        },
        {
            "bufferView" : 2,
            "componentType" : 5126,
            "count" : 1556,
            "type" : "VEC2"
        },
        {
            "bufferView" : 3,
            "componentType" : 5123,
            "count" : 2160,
            "type" : "SCALAR"
        },
        {
            "bufferView" : 5,
            "componentType" : 5126,
            "count" : 13664,
            "max" : [
                7.370945930480957,
                8.914648056030273,
                7.314703941345215
            ],
            "min" : [
                -7.323220729827881,
                0.0011383593082427979,
                -7.403890132904053
            ],
            "type" : "VEC3"
        },
        {
            "bufferView" : 6,
            "componentType" : 5126,
            "count" : 13664,
            "type" : "VEC3"
        },
        {
            "bufferView" : 7,
            "componentType" : 5126,
            "count" : 13664,
            "type" : "VEC2"
        },
        {
            "bufferView" : 8,
            "componentType" : 5123,
            "count" : 18840,
            "type" : "SCALAR"
        },
        {
            "bufferView" : 9,
            "componentType" : 5126,
            "count" : 21408,
            "max" : [
                7.37296724319458,
                8.909843444824219,
                7.371394157409668
            ],
            "min" : [
                -7.371870040893555,
                0.011297225952148438,
                -7.370573043823242
            ],
            "type" : "VEC3"
        },
        {
            "bufferView" : 10,
            "componentType" : 5126,
            "count" : 21408,
            "type" : "VEC3"
        },
        {
            "bufferView" : 11,
            "componentType" : 5126,
            "count" : 21408,
            "type" : "VEC2"
        },
        {
            "bufferView" : 12,
            "componentType" : 5123,
            "count" : 29436,
            "type" : "SCALAR"
        },
        {
            "bufferView" : 13,
            "componentType" : 5126,
            "count" : 192,
            "max" : [
                0.25,
                8.903778076171875,
                0.25
            ],
            "min" : [
                -0.25,
                0.000494837760925293,
                -0.25
            ],
            "type" : "VEC3"
        },
        {
            "bufferView" : 14,
            "componentType" : 5126,
            "count" : 192,
            "type" : "VEC3"
        },
        {
            "bufferView" : 15,
            "componentType" : 5126,
            "count" : 192,
            "type" : "VEC2"
        },
        {
            "bufferView" : 16,
            "componentType" : 5123,
            "count" : 372,
            "type" : "SCALAR"
        },
        {
            "bufferView" : 17,
            "componentType" : 5126,
            "count" : 240,
            "max" : [
                4.950957775115967,
                0.10175760090351105,
                0.9580186605453491
            ],
            "min" : [
                -0.47312313318252563,
                -0.13032934069633484,
                -0.5791088938713074
            ],
            "type" : "VEC3"
        },
        {
            "bufferView" : 18,
            "componentType" : 5126,
            "count" : 240,
            "type" : "VEC3"
        },
        {
            "bufferView" : 19,
            "componentType" : 5126,
            "count" : 240,
            "type" : "VEC2"
        },
        {
            "bufferView" : 20,
            "componentType" : 5123,
            "count" : 456,
            "type" : "SCALAR"
        }
    ],
    "bufferViews" : [
        {
            "buffer" : 0,
            "byteLength" : 18672,
            "byteOffset" : 0
        },
        {
            "buffer" : 0,
            "byteLength" : 18672,
            "byteOffset" : 18672
        },
        {
            "buffer" : 0,
            "byteLength" : 12448,
            "byteOffset" : 37344
        },
        {
            "buffer" : 0,
            "byteLength" : 4320,
            "byteOffset" : 49792
        },
        {
            "buffer" : 0,
            "byteLength" : 1126,
            "byteOffset" : 54112
        },
        {
            "buffer" : 0,
            "byteLength" : 163968,
            "byteOffset" : 55240
        },
        {
            "buffer" : 0,
            "byteLength" : 163968,
            "byteOffset" : 219208
        },
        {
            "buffer" : 0,
            "byteLength" : 109312,
            "byteOffset" : 383176
        },
        {
            "buffer" : 0,
            "byteLength" : 37680,
            "byteOffset" : 492488
        },
        {
            "buffer" : 0,
            "byteLength" : 256896,
            "byteOffset" : 530168
        },
        {
            "buffer" : 0,
            "byteLength" : 256896,
            "byteOffset" : 787064
        },
        {
            "buffer" : 0,
            "byteLength" : 171264,
            "byteOffset" : 1043960
        },
        {
            "buffer" : 0,
            "byteLength" : 58872,
            "byteOffset" : 1215224
        },
        {
            "buffer" : 0,
            "byteLength" : 2304,
            "byteOffset" : 1274096
        },
        {
            "buffer" : 0,
            "byteLength" : 2304,
            "byteOffset" : 1276400
        },
        {
            "buffer" : 0,
            "byteLength" : 1536,
            "byteOffset" : 1278704
        },
        {
            "buffer" : 0,
            "byteLength" : 744,
            "byteOffset" : 1280240
        },
        {
            "buffer" : 0,
            "byteLength" : 2880,
            "byteOffset" : 1280984
        },
        {
            "buffer" : 0,
            "byteLength" : 2880,
            "byteOffset" : 1283864
        },
        {
            "buffer" : 0,
            "byteLength" : 1920,
            "byteOffset" : 1286744
        },
        {
            "buffer" : 0,
            "byteLength" : 912,
            "byteOffset" : 1288664
        }
    ],
    "samplers" : [
        {
            "magFilter" : 9728,
            "minFilter" : 9984
        }
    ],
    "buffers" : [
        {
            "byteLength" : 1289576,
            "uri" : "data:application/octet-stream;base64,"
        }
    ]
}
